<svg xmlns="http://www.w3.org/2000/svg" width="1420" height="676" viewBox="0 0 1420 676" role="img" aria-labelledby="title desc">
<title id="title">Import graph</title><desc id="desc">Generated by MiniDoc. Relations are aggregated by package. Solid edges are exact; dashed edges are dynamic or unresolved.</desc>
<defs><marker id="arrow" viewBox="0 0 10 10" refX="9" refY="5" markerWidth="7" markerHeight="7" orient="auto-start-reverse"><path d="M 0 0 L 10 5 L 0 10 z" fill="#64748b"/></marker></defs>
<rect width="100%" height="100%" fill="#f8fafc"/>
<text x="24" y="34" font-family="system-ui,sans-serif" font-size="20" font-weight="700" fill="#0f172a">Import graph</text>
<path d="M 150 95 C 150 284, 430 284, 430 473" fill="none" stroke="#64748b" stroke-width="1.5" marker-end="url(#arrow)"/>
<path d="M 430 113 C 430 293, 430 293, 430 473" fill="none" stroke="#64748b" stroke-width="1.5" marker-end="url(#arrow)"/>
<path d="M 710 131 C 710 239, 1270 239, 1270 347" fill="none" stroke="#64748b" stroke-width="1.5" marker-end="url(#arrow)"/>
<path d="M 990 149 C 990 329, 990 329, 990 509." fill="none" stroke="#64748b" stroke-width="1.5" marker-end="url(#arrow)"/>
<path d="M 1270 167 C 1270 338, 990 338, 990 509." fill="none" stroke="#64748b" stroke-width="1.5" marker-end="url(#arrow)"/>
<path d="M 150 185 C 150 167, 990 167, 990 149" fill="none" stroke="#64748b" stroke-width="1.5" marker-end="url(#arrow)"/>
<path d="M 150 185 C 150 194, 430 194, 430 203" fill="none" stroke="#64748b" stroke-width="1.5" marker-end="url(#arrow)"/>
<path d="M 430 203 C 430 356, 990 356, 990 509." fill="none" stroke="#64748b" stroke-width="1.5" marker-end="url(#arrow)"/>
<path d="M 710 221 C 710 230, 990 230, 990 239" fill="none" stroke="#64748b" stroke-width="1.5" marker-end="url(#arrow)"/>
<path d="M 1270 257 C 1270 248, 990 248, 990 239" fill="none" stroke="#64748b" stroke-width="1.5" marker-end="url(#arrow)"/>
<path d="M 150 275 C 150 392, 990 392, 990 509." fill="none" stroke="#64748b" stroke-width="1.5" marker-end="url(#arrow)"/>
<path d="M 430 293 C 430 401, 990 401, 990 509." fill="none" stroke="#64748b" stroke-width="1.5" marker-end="url(#arrow)"/>
<path d="M 990 329 C 990 320, 710 320, 710 311" fill="none" stroke="#64748b" stroke-width="1.5" marker-end="url(#arrow)"/>
<path d="M 1270 347 C 1270 410, 430 410, 430 473" fill="none" stroke="#64748b" stroke-width="1.5" marker-end="url(#arrow)"/>
<path d="M 150 365 C 150 428, 710 428, 710 491." fill="none" stroke="#64748b" stroke-width="1.5" marker-end="url(#arrow)"/>
<path d="M 430 383 C 430 428, 430 428, 430 473" fill="none" stroke="#64748b" stroke-width="1.5" marker-end="url(#arrow)"/>
<path d="M 710 401 C 710 392, 430 392, 430 383" fill="none" stroke="#64748b" stroke-width="1.5" marker-end="url(#arrow)"/>
<path d="M 710 401 C 710 419, 1270 419, 1270 437" fill="none" stroke="#64748b" stroke-width="1.5" marker-end="url(#arrow)"/>
<path d="M 1270 437 C 1270 446, 150 446, 150 455" fill="none" stroke="#64748b" stroke-width="1.5" marker-end="url(#arrow)"/>
<path d="M 430 473 C 430 482, 710 482, 710 491." fill="none" stroke="#64748b" stroke-width="1.5" marker-end="url(#arrow)"/>
<path d="M 1270 527 C 1270 446, 150 446, 150 365" fill="none" stroke="#64748b" stroke-width="1.5" marker-end="url(#arrow)"/>
<path d="M 1270 527 C 1270 500, 430 500, 430 473" fill="none" stroke="#64748b" stroke-width="1.5" marker-end="url(#arrow)"/>
<path d="M 150 545 C 150 554, 430 554, 430 563" fill="none" stroke="#64748b" stroke-width="1.5" marker-end="url(#arrow)"/>
<path d="M 430 563 C 430 482, 710 482, 710 401" fill="none" stroke="#64748b" stroke-width="1.5" marker-end="url(#arrow)"/>
<path d="M 430 563 C 430 491, 990 491, 990 419" fill="none" stroke="#64748b" stroke-width="1.5" marker-end="url(#arrow)"/>
<path d="M 710 581 C 710 401, 710 401, 710 221" fill="none" stroke="#64748b" stroke-width="1.5" marker-end="url(#arrow)"/>
<path d="M 710 581 C 710 464, 1270 464, 1270 347" fill="none" stroke="#64748b" stroke-width="1.5" marker-end="url(#arrow)"/>
<path d="M 710 581 C 710 527, 430 527, 430 473" fill="none" stroke="#64748b" stroke-width="1.5" marker-end="url(#arrow)"/>
<g><rect x="20" y="65" width="260" height="60" rx="8" fill="#ffffff" stroke="#2563eb" stroke-width="1.5"/><text x="32" y="100" font-family="ui-monospace,monospace" font-size="12" fill="#0f172a">std._linux_fs</text></g>
<g><rect x="300" y="83" width="260" height="60" rx="8" fill="#ffffff" stroke="#2563eb" stroke-width="1.5"/><text x="312" y="118" font-family="ui-monospace,monospace" font-size="12" fill="#0f172a">std.array</text></g>
<g><rect x="580" y="101" width="260" height="60" rx="8" fill="#ffffff" stroke="#2563eb" stroke-width="1.5"/><text x="592" y="136" font-family="ui-monospace,monospace" font-size="12" fill="#0f172a">std.bytes</text></g>
<g><rect x="860" y="119" width="260" height="60" rx="8" fill="#ffffff" stroke="#2563eb" stroke-width="1.5"/><text x="872" y="154" font-family="ui-monospace,monospace" font-size="12" fill="#0f172a">std.concurrent.cancellation</text></g>
<g><rect x="1140" y="137" width="260" height="60" rx="8" fill="#ffffff" stroke="#2563eb" stroke-width="1.5"/><text x="1152" y="172" font-family="ui-monospace,monospace" font-size="12" fill="#0f172a">std.concurrent.channel</text></g>
<g><rect x="20" y="155" width="260" height="60" rx="8" fill="#ffffff" stroke="#2563eb" stroke-width="1.5"/><text x="32" y="190" font-family="ui-monospace,monospace" font-size="12" fill="#0f172a">std.concurrent.task</text></g>
<g><rect x="300" y="173" width="260" height="60" rx="8" fill="#ffffff" stroke="#2563eb" stroke-width="1.5"/><text x="312" y="208" font-family="ui-monospace,monospace" font-size="12" fill="#0f172a">std.concurrent.thread_pool</text></g>
<g><rect x="580" y="191" width="260" height="60" rx="8" fill="#ffffff" stroke="#2563eb" stroke-width="1.5"/><text x="592" y="226" font-family="ui-monospace,monospace" font-size="12" fill="#0f172a">std.crypto</text></g>
<g><rect x="860" y="209" width="260" height="60" rx="8" fill="#ffffff" stroke="#2563eb" stroke-width="1.5"/><text x="872" y="244" font-family="ui-monospace,monospace" font-size="12" fill="#0f172a">std.crypto._cng</text></g>
<g><rect x="1140" y="227" width="260" height="60" rx="8" fill="#ffffff" stroke="#2563eb" stroke-width="1.5"/><text x="1152" y="262" font-family="ui-monospace,monospace" font-size="12" fill="#0f172a">std.crypto.aes_gcm</text></g>
<g><rect x="20" y="245" width="260" height="60" rx="8" fill="#ffffff" stroke="#2563eb" stroke-width="1.5"/><text x="32" y="280" font-family="ui-monospace,monospace" font-size="12" fill="#0f172a">std.ds.concurrent_hashmap</text></g>
<g><rect x="300" y="263" width="260" height="60" rx="8" fill="#ffffff" stroke="#2563eb" stroke-width="1.5"/><text x="312" y="298" font-family="ui-monospace,monospace" font-size="12" fill="#0f172a">std.ds.concurrent_list</text></g>
<g><rect x="580" y="281" width="260" height="60" rx="8" fill="#ffffff" stroke="#2563eb" stroke-width="1.5"/><text x="592" y="316" font-family="ui-monospace,monospace" font-size="12" fill="#0f172a">std.ds.hashmap</text></g>
<g><rect x="860" y="299" width="260" height="60" rx="8" fill="#ffffff" stroke="#2563eb" stroke-width="1.5"/><text x="872" y="334" font-family="ui-monospace,monospace" font-size="12" fill="#0f172a">std.ds.set</text></g>
<g><rect x="1140" y="317" width="260" height="60" rx="8" fill="#ffffff" stroke="#2563eb" stroke-width="1.5"/><text x="1152" y="352" font-family="ui-monospace,monospace" font-size="12" fill="#0f172a">std.encoding.hex</text></g>
<g><rect x="20" y="335" width="260" height="60" rx="8" fill="#ffffff" stroke="#2563eb" stroke-width="1.5"/><text x="32" y="370" font-family="ui-monospace,monospace" font-size="12" fill="#0f172a">std.fmt</text></g>
<g><rect x="300" y="353" width="260" height="60" rx="8" fill="#ffffff" stroke="#2563eb" stroke-width="1.5"/><text x="312" y="388" font-family="ui-monospace,monospace" font-size="12" fill="#0f172a">std.fs</text></g>
<g><rect x="580" y="371" width="260" height="60" rx="8" fill="#ffffff" stroke="#2563eb" stroke-width="1.5"/><text x="592" y="406" font-family="ui-monospace,monospace" font-size="12" fill="#0f172a">std.io.file</text></g>
<g><rect x="860" y="389" width="260" height="60" rx="8" fill="#ffffff" stroke="#2563eb" stroke-width="1.5"/><text x="872" y="424" font-family="ui-monospace,monospace" font-size="12" fill="#0f172a">std.net</text></g>
<g><rect x="1140" y="407" width="260" height="60" rx="8" fill="#ffffff" stroke="#2563eb" stroke-width="1.5"/><text x="1152" y="442" font-family="ui-monospace,monospace" font-size="12" fill="#0f172a">std.path</text></g>
<g><rect x="20" y="425" width="260" height="60" rx="8" fill="#ffffff" stroke="#2563eb" stroke-width="1.5"/><text x="32" y="460" font-family="ui-monospace,monospace" font-size="12" fill="#0f172a">std.platform</text></g>
<g><rect x="300" y="443" width="260" height="60" rx="8" fill="#ffffff" stroke="#2563eb" stroke-width="1.5"/><text x="312" y="478" font-family="ui-monospace,monospace" font-size="12" fill="#0f172a">std.string</text></g>
<g><rect x="580" y="461." width="260" height="60" rx="8" fill="#ffffff" stroke="#2563eb" stroke-width="1.5"/><text x="592" y="496." font-family="ui-monospace,monospace" font-size="12" fill="#0f172a">std.string_builder</text></g>
<g><rect x="860" y="479." width="260" height="60" rx="8" fill="#ffffff" stroke="#2563eb" stroke-width="1.5"/><text x="872" y="514" font-family="ui-monospace,monospace" font-size="12" fill="#0f172a">std.threading</text></g>
<g><rect x="1140" y="497" width="260" height="60" rx="8" fill="#ffffff" stroke="#2563eb" stroke-width="1.5"/><text x="1152" y="532" font-family="ui-monospace,monospace" font-size="12" fill="#0f172a">std.time</text></g>
<g><rect x="20" y="515" width="260" height="60" rx="8" fill="#ffffff" stroke="#2563eb" stroke-width="1.5"/><text x="32" y="550" font-family="ui-monospace,monospace" font-size="12" fill="#0f172a">std.tls</text></g>
<g><rect x="300" y="533" width="260" height="60" rx="8" fill="#ffffff" stroke="#2563eb" stroke-width="1.5"/><text x="312" y="568" font-family="ui-monospace,monospace" font-size="12" fill="#0f172a">std.tls._schannel</text></g>
<g><rect x="580" y="551" width="260" height="60" rx="8" fill="#ffffff" stroke="#2563eb" stroke-width="1.5"/><text x="592" y="586" font-family="ui-monospace,monospace" font-size="12" fill="#0f172a">std.uuid</text></g>
</svg>
