<svg xmlns="http://www.w3.org/2000/svg" width="1420" height="802" viewBox="0 0 1420 802" role="img" aria-labelledby="title desc">
<title id="title">Import graph</title><desc id="desc">Generated by MiniDoc. Relations are aggregated by package. Solid edges are exact; dashed edges are dynamic or unresolved.</desc>
<defs><marker id="arrow" viewBox="0 0 10 10" refX="9" refY="5" markerWidth="7" markerHeight="7" orient="auto-start-reverse"><path d="M 0 0 L 10 5 L 0 10 z" fill="#64748b"/></marker></defs>
<rect width="100%" height="100%" fill="#f8fafc"/>
<text x="24" y="34" font-family="system-ui,sans-serif" font-size="20" font-weight="700" fill="#0f172a">Import graph</text>
<path d="M 150 95 C 150 338, 710 338, 710 581" fill="none" stroke="#64748b" stroke-width="1.5" marker-end="url(#arrow)"/>
<path d="M 430 113 C 430 338, 430 338, 430 563" fill="none" stroke="#64748b" stroke-width="1.5" marker-end="url(#arrow)"/>
<path d="M 430 113 C 430 347, 710 347, 710 581" fill="none" stroke="#64748b" stroke-width="1.5" marker-end="url(#arrow)"/>
<path d="M 710 131 C 710 284, 1270 284, 1270 437" fill="none" stroke="#64748b" stroke-width="1.5" marker-end="url(#arrow)"/>
<path d="M 1270 167 C 1270 158, 990 158, 990 149" fill="none" stroke="#64748b" stroke-width="1.5" marker-end="url(#arrow)"/>
<path d="M 1270 167 C 1270 176, 150 176, 150 185" fill="none" stroke="#64748b" stroke-width="1.5" marker-end="url(#arrow)"/>
<path d="M 1270 167 C 1270 185, 430 185, 430 203" fill="none" stroke="#64748b" stroke-width="1.5" marker-end="url(#arrow)"/>
<path d="M 710 221 C 710 428, 150 428, 150 635" fill="none" stroke="#64748b" stroke-width="1.5" marker-end="url(#arrow)"/>
<path d="M 990 239 C 990 437, 150 437, 150 635" fill="none" stroke="#64748b" stroke-width="1.5" marker-end="url(#arrow)"/>
<path d="M 990 239 C 990 446, 430 446, 430 653" fill="none" stroke="#64748b" stroke-width="1.5" marker-end="url(#arrow)"/>
<path d="M 1270 257 C 1270 239, 710 239, 710 221" fill="none" stroke="#64748b" stroke-width="1.5" marker-end="url(#arrow)"/>
<path d="M 1270 257 C 1270 266, 150 266, 150 275" fill="none" stroke="#64748b" stroke-width="1.5" marker-end="url(#arrow)"/>
<path d="M 1270 257 C 1270 455, 430 455, 430 653" fill="none" stroke="#64748b" stroke-width="1.5" marker-end="url(#arrow)"/>
<path d="M 150 275 C 150 455, 150 455, 150 635" fill="none" stroke="#64748b" stroke-width="1.5" marker-end="url(#arrow)"/>
<path d="M 430 293 C 430 302, 710 302, 710 311" fill="none" stroke="#64748b" stroke-width="1.5" marker-end="url(#arrow)"/>
<path d="M 990 329 C 990 320, 710 320, 710 311" fill="none" stroke="#64748b" stroke-width="1.5" marker-end="url(#arrow)"/>
<path d="M 1270 347 C 1270 320, 430 320, 430 293" fill="none" stroke="#64748b" stroke-width="1.5" marker-end="url(#arrow)"/>
<path d="M 1270 347 C 1270 329, 710 329, 710 311" fill="none" stroke="#64748b" stroke-width="1.5" marker-end="url(#arrow)"/>
<path d="M 150 365 C 150 500, 150 500, 150 635" fill="none" stroke="#64748b" stroke-width="1.5" marker-end="url(#arrow)"/>
<path d="M 430 383 C 430 509, 150 509, 150 635" fill="none" stroke="#64748b" stroke-width="1.5" marker-end="url(#arrow)"/>
<path d="M 990 419 C 990 410, 710 410, 710 401" fill="none" stroke="#64748b" stroke-width="1.5" marker-end="url(#arrow)"/>
<path d="M 1270 437 C 1270 509, 710 509, 710 581" fill="none" stroke="#64748b" stroke-width="1.5" marker-end="url(#arrow)"/>
<path d="M 150 455 C 150 527, 990 527, 990 599" fill="none" stroke="#64748b" stroke-width="1.5" marker-end="url(#arrow)"/>
<path d="M 430 473 C 430 527, 710 527, 710 581" fill="none" stroke="#64748b" stroke-width="1.5" marker-end="url(#arrow)"/>
<path d="M 710 491. C 710 482, 430 482, 430 473" fill="none" stroke="#64748b" stroke-width="1.5" marker-end="url(#arrow)"/>
<path d="M 710 491. C 710 509, 1270 509, 1270 527" fill="none" stroke="#64748b" stroke-width="1.5" marker-end="url(#arrow)"/>
<path d="M 1270 527 C 1270 536, 150 536, 150 545" fill="none" stroke="#64748b" stroke-width="1.5" marker-end="url(#arrow)"/>
<path d="M 710 581 C 710 590, 990 590, 990 599" fill="none" stroke="#64748b" stroke-width="1.5" marker-end="url(#arrow)"/>
<path d="M 1270 617 C 1270 545, 430 545, 430 473" fill="none" stroke="#64748b" stroke-width="1.5" marker-end="url(#arrow)"/>
<path d="M 1270 617 C 1270 599, 710 599, 710 581" fill="none" stroke="#64748b" stroke-width="1.5" marker-end="url(#arrow)"/>
<path d="M 1270 617 C 1270 608, 990 608, 990 599" fill="none" stroke="#64748b" stroke-width="1.5" marker-end="url(#arrow)"/>
<path d="M 1270 617 C 1270 635, 430 635, 430 653" fill="none" stroke="#64748b" stroke-width="1.5" marker-end="url(#arrow)"/>
<path d="M 430 653 C 430 554, 150 554, 150 455" fill="none" stroke="#64748b" stroke-width="1.5" marker-end="url(#arrow)"/>
<path d="M 430 653 C 430 617, 710 617, 710 581" fill="none" stroke="#64748b" stroke-width="1.5" marker-end="url(#arrow)"/>
<path d="M 710 671 C 710 680, 990 680, 990 689" fill="none" stroke="#64748b" stroke-width="1.5" marker-end="url(#arrow)"/>
<path d="M 990 689 C 990 590, 710 590, 710 491." fill="none" stroke="#64748b" stroke-width="1.5" marker-end="url(#arrow)"/>
<path d="M 990 689 C 990 599, 990 599, 990 509." fill="none" stroke="#64748b" stroke-width="1.5" marker-end="url(#arrow)"/>
<path d="M 1270 707 C 1270 500, 430 500, 430 293" fill="none" stroke="#64748b" stroke-width="1.5" marker-end="url(#arrow)"/>
<path d="M 1270 707 C 1270 572, 1270 572, 1270 437" fill="none" stroke="#64748b" stroke-width="1.5" marker-end="url(#arrow)"/>
<path d="M 1270 707 C 1270 644, 710 644, 710 581" fill="none" stroke="#64748b" stroke-width="1.5" marker-end="url(#arrow)"/>
<g><rect x="20" y="65" width="260" height="60" rx="8" fill="#ffffff" stroke="#2563eb" stroke-width="1.5"/><text x="32" y="100" font-family="ui-monospace,monospace" font-size="12" fill="#0f172a">std._linux_fs</text></g>
<g><rect x="300" y="83" width="260" height="60" rx="8" fill="#ffffff" stroke="#2563eb" stroke-width="1.5"/><text x="312" y="118" font-family="ui-monospace,monospace" font-size="12" fill="#0f172a">std.array</text></g>
<g><rect x="580" y="101" width="260" height="60" rx="8" fill="#ffffff" stroke="#2563eb" stroke-width="1.5"/><text x="592" y="136" font-family="ui-monospace,monospace" font-size="12" fill="#0f172a">std.bytes</text></g>
<g><rect x="860" y="119" width="260" height="60" rx="8" fill="#ffffff" stroke="#2563eb" stroke-width="1.5"/><text x="872" y="154" font-family="ui-monospace,monospace" font-size="12" fill="#0f172a">std.checksum.crc32c</text></g>
<g><rect x="1140" y="137" width="260" height="60" rx="8" fill="#ffffff" stroke="#2563eb" stroke-width="1.5"/><text x="1152" y="172" font-family="ui-monospace,monospace" font-size="12" fill="#0f172a">std.compress</text></g>
<g><rect x="20" y="155" width="260" height="60" rx="8" fill="#ffffff" stroke="#2563eb" stroke-width="1.5"/><text x="32" y="190" font-family="ui-monospace,monospace" font-size="12" fill="#0f172a">std.compress.lz4</text></g>
<g><rect x="300" y="173" width="260" height="60" rx="8" fill="#ffffff" stroke="#2563eb" stroke-width="1.5"/><text x="312" y="208" font-family="ui-monospace,monospace" font-size="12" fill="#0f172a">std.compress.rle</text></g>
<g><rect x="580" y="191" width="260" height="60" rx="8" fill="#ffffff" stroke="#2563eb" stroke-width="1.5"/><text x="592" y="226" font-family="ui-monospace,monospace" font-size="12" fill="#0f172a">std.concurrent.cancellation</text></g>
<g><rect x="860" y="209" width="260" height="60" rx="8" fill="#ffffff" stroke="#2563eb" stroke-width="1.5"/><text x="872" y="244" font-family="ui-monospace,monospace" font-size="12" fill="#0f172a">std.concurrent.channel</text></g>
<g><rect x="1140" y="227" width="260" height="60" rx="8" fill="#ffffff" stroke="#2563eb" stroke-width="1.5"/><text x="1152" y="262" font-family="ui-monospace,monospace" font-size="12" fill="#0f172a">std.concurrent.task</text></g>
<g><rect x="20" y="245" width="260" height="60" rx="8" fill="#ffffff" stroke="#2563eb" stroke-width="1.5"/><text x="32" y="280" font-family="ui-monospace,monospace" font-size="12" fill="#0f172a">std.concurrent.thread_pool</text></g>
<g><rect x="300" y="263" width="260" height="60" rx="8" fill="#ffffff" stroke="#2563eb" stroke-width="1.5"/><text x="312" y="298" font-family="ui-monospace,monospace" font-size="12" fill="#0f172a">std.crypto</text></g>
<g><rect x="580" y="281" width="260" height="60" rx="8" fill="#ffffff" stroke="#2563eb" stroke-width="1.5"/><text x="592" y="316" font-family="ui-monospace,monospace" font-size="12" fill="#0f172a">std.crypto._cng</text></g>
<g><rect x="860" y="299" width="260" height="60" rx="8" fill="#ffffff" stroke="#2563eb" stroke-width="1.5"/><text x="872" y="334" font-family="ui-monospace,monospace" font-size="12" fill="#0f172a">std.crypto.aes_gcm</text></g>
<g><rect x="1140" y="317" width="260" height="60" rx="8" fill="#ffffff" stroke="#2563eb" stroke-width="1.5"/><text x="1152" y="352" font-family="ui-monospace,monospace" font-size="12" fill="#0f172a">std.crypto.ecdsa_p256</text></g>
<g><rect x="20" y="335" width="260" height="60" rx="8" fill="#ffffff" stroke="#2563eb" stroke-width="1.5"/><text x="32" y="370" font-family="ui-monospace,monospace" font-size="12" fill="#0f172a">std.ds.concurrent_hashmap</text></g>
<g><rect x="300" y="353" width="260" height="60" rx="8" fill="#ffffff" stroke="#2563eb" stroke-width="1.5"/><text x="312" y="388" font-family="ui-monospace,monospace" font-size="12" fill="#0f172a">std.ds.concurrent_list</text></g>
<g><rect x="580" y="371" width="260" height="60" rx="8" fill="#ffffff" stroke="#2563eb" stroke-width="1.5"/><text x="592" y="406" font-family="ui-monospace,monospace" font-size="12" fill="#0f172a">std.ds.hashmap</text></g>
<g><rect x="860" y="389" width="260" height="60" rx="8" fill="#ffffff" stroke="#2563eb" stroke-width="1.5"/><text x="872" y="424" font-family="ui-monospace,monospace" font-size="12" fill="#0f172a">std.ds.set</text></g>
<g><rect x="1140" y="407" width="260" height="60" rx="8" fill="#ffffff" stroke="#2563eb" stroke-width="1.5"/><text x="1152" y="442" font-family="ui-monospace,monospace" font-size="12" fill="#0f172a">std.encoding.hex</text></g>
<g><rect x="20" y="425" width="260" height="60" rx="8" fill="#ffffff" stroke="#2563eb" stroke-width="1.5"/><text x="32" y="460" font-family="ui-monospace,monospace" font-size="12" fill="#0f172a">std.fmt</text></g>
<g><rect x="300" y="443" width="260" height="60" rx="8" fill="#ffffff" stroke="#2563eb" stroke-width="1.5"/><text x="312" y="478" font-family="ui-monospace,monospace" font-size="12" fill="#0f172a">std.fs</text></g>
<g><rect x="580" y="461." width="260" height="60" rx="8" fill="#ffffff" stroke="#2563eb" stroke-width="1.5"/><text x="592" y="496." font-family="ui-monospace,monospace" font-size="12" fill="#0f172a">std.io.file</text></g>
<g><rect x="860" y="479." width="260" height="60" rx="8" fill="#ffffff" stroke="#2563eb" stroke-width="1.5"/><text x="872" y="514" font-family="ui-monospace,monospace" font-size="12" fill="#0f172a">std.net</text></g>
<g><rect x="1140" y="497" width="260" height="60" rx="8" fill="#ffffff" stroke="#2563eb" stroke-width="1.5"/><text x="1152" y="532" font-family="ui-monospace,monospace" font-size="12" fill="#0f172a">std.path</text></g>
<g><rect x="20" y="515" width="260" height="60" rx="8" fill="#ffffff" stroke="#2563eb" stroke-width="1.5"/><text x="32" y="550" font-family="ui-monospace,monospace" font-size="12" fill="#0f172a">std.platform</text></g>
<g><rect x="300" y="533" width="260" height="60" rx="8" fill="#ffffff" stroke="#2563eb" stroke-width="1.5"/><text x="312" y="568" font-family="ui-monospace,monospace" font-size="12" fill="#0f172a">std.result</text></g>
<g><rect x="580" y="551" width="260" height="60" rx="8" fill="#ffffff" stroke="#2563eb" stroke-width="1.5"/><text x="592" y="586" font-family="ui-monospace,monospace" font-size="12" fill="#0f172a">std.string</text></g>
<g><rect x="860" y="569" width="260" height="60" rx="8" fill="#ffffff" stroke="#2563eb" stroke-width="1.5"/><text x="872" y="604" font-family="ui-monospace,monospace" font-size="12" fill="#0f172a">std.string_builder</text></g>
<g><rect x="1140" y="587" width="260" height="60" rx="8" fill="#ffffff" stroke="#2563eb" stroke-width="1.5"/><text x="1152" y="622" font-family="ui-monospace,monospace" font-size="12" fill="#0f172a">std.test</text></g>
<g><rect x="20" y="605" width="260" height="60" rx="8" fill="#ffffff" stroke="#2563eb" stroke-width="1.5"/><text x="32" y="640" font-family="ui-monospace,monospace" font-size="12" fill="#0f172a">std.threading</text></g>
<g><rect x="300" y="623" width="260" height="60" rx="8" fill="#ffffff" stroke="#2563eb" stroke-width="1.5"/><text x="312" y="658" font-family="ui-monospace,monospace" font-size="12" fill="#0f172a">std.time</text></g>
<g><rect x="580" y="641" width="260" height="60" rx="8" fill="#ffffff" stroke="#2563eb" stroke-width="1.5"/><text x="592" y="676" font-family="ui-monospace,monospace" font-size="12" fill="#0f172a">std.tls</text></g>
<g><rect x="860" y="659" width="260" height="60" rx="8" fill="#ffffff" stroke="#2563eb" stroke-width="1.5"/><text x="872" y="694" font-family="ui-monospace,monospace" font-size="12" fill="#0f172a">std.tls._schannel</text></g>
<g><rect x="1140" y="677" width="260" height="60" rx="8" fill="#ffffff" stroke="#2563eb" stroke-width="1.5"/><text x="1152" y="712" font-family="ui-monospace,monospace" font-size="12" fill="#0f172a">std.uuid</text></g>
</svg>
